<svg xmlns="http://www.w3.org/2000/svg" width="25.198" height="36.801" viewBox="0 0 25.198 36.801"><path d="M33.023,2.138V5.485a2.845,2.845,0,0,1-1.142,2.281L17.487,18.534a1.1,1.1,0,0,0,0,1.754L31.881,31.054a2.853,2.853,0,0,1,1.143,2.283v3.347a1.125,1.125,0,0,1-1.8.9L8.367,20.487a1.343,1.343,0,0,1,0-2.152l22.857-17.1A1.125,1.125,0,0,1,33.023,2.138Z" transform="translate(-7.828 -1.01)" fill="#fff"/><path d="M13.54,14.462,8.365,18.335a1.344,1.344,0,0,0,0,2.152l5.175,3.871a1.125,1.125,0,0,0,1.8-.9l0-8.092A1.126,1.126,0,0,0,13.54,14.462Z" transform="translate(9.858 -1.01)" fill="#fff"/></svg>