<svg xmlns="http://www.w3.org/2000/svg" width="25.198" height="36.801" viewBox="0 0 25.198 36.801"><g transform="translate(-7.826 -1.01)"><path d="M7.829,2.138V5.485A2.845,2.845,0,0,0,8.971,7.766L23.365,18.534a1.1,1.1,0,0,1,0,1.754L8.971,31.054a2.853,2.853,0,0,0-1.143,2.283v3.347a1.125,1.125,0,0,0,1.8.9l22.858-17.1a1.343,1.343,0,0,0,0-2.152L9.628,1.237A1.125,1.125,0,0,0,7.829,2.138Z" fill="#fff"/><path d="M9.626,14.462,14.8,18.335a1.344,1.344,0,0,1,0,2.152L9.627,24.358a1.125,1.125,0,0,1-1.8-.9l0-8.092A1.126,1.126,0,0,1,9.626,14.462Z" fill="#fff"/></g></svg>