<svg xmlns="http://www.w3.org/2000/svg" xmlns:xlink="http://www.w3.org/1999/xlink" width="160" height="120" viewBox="0 0 160 120"><defs><clipPath id="a"><rect width="75" height="75" fill="none"/></clipPath></defs><g transform="translate(384.88 52)"><path d="M0,0H160V120H0Z" transform="translate(-384.88 -52)" fill="#67913b"/><g transform="translate(-362.88 43.089)"><path d="M32.055,94.751q.109.259.214.522.105-.271.218-.534t.24-.5l3.219-6.024a.835.835,0,0,1,.124-.181.386.386,0,0,1,.143-.1.638.638,0,0,1,.176-.038c.065,0,.143-.007.234-.007h1.527V98.763H36.369V91.739q0-.2.011-.429t.034-.474L33.127,97a.867.867,0,0,1-.294.327.758.758,0,0,1-.421.117h-.278a.759.759,0,0,1-.421-.117A.867.867,0,0,1,31.42,97l-3.332-6.189c.02.165.034.327.041.485s.011.3.011.44v7.024H26.358V87.888h1.527c.091,0,.168,0,.233.007a.637.637,0,0,1,.177.038.426.426,0,0,1,.147.1.76.76,0,0,1,.128.181l3.25,6.039C31.9,94.412,31.983,94.578,32.055,94.751Z" transform="translate(-26.358 -87.888)" fill="#fff"/><path d="M47.118,87.888H48.75a.679.679,0,0,1,.429.128.785.785,0,0,1,.248.331l2.557,6.634q.128.323.244.71c.078.258.152.53.222.816a9.346,9.346,0,0,1,.429-1.526l2.55-6.634a.78.78,0,0,1,.24-.316.653.653,0,0,1,.429-.143H57.73L53.338,98.763H51.51Z" transform="translate(-34.317 -87.888)" fill="#fff"/><path d="M67.286,98.908h-.775V88.267h.775Z" transform="translate(-41.752 -88.033)" fill="#fff"/><path d="M73.427,88.293a.353.353,0,0,1,.128.117l6.889,9.221c-.015-.15-.023-.3-.023-.437V88.267H81.1V98.908H80.73a.324.324,0,0,1-.278-.15l-6.919-9.235c.015.15.022.293.022.428v8.957h-.669V88.267h.376A.418.418,0,0,1,73.427,88.293Z" transform="translate(-44.196 -88.033)" fill="#fff"/><path d="M97.334,88.267v.654H93.6v9.988h-.767V88.921H89.068v-.654Z" transform="translate(-50.401 -88.033)" fill="#fff"/><path d="M111.723,88.267v.639h-5.6v4.3h4.663v.624h-4.663v4.437h5.6v.639h-6.378V88.267Z" transform="translate(-56.641 -88.033)" fill="#fff"/><path d="M123.011,98.329a7.969,7.969,0,0,0,1-.057,5.345,5.345,0,0,0,.839-.169,5.22,5.22,0,0,0,.737-.274c.232-.107.467-.229.7-.364V94.6h-2.045a.2.2,0,0,1-.14-.052.162.162,0,0,1-.057-.12V94h2.941v3.783a6.834,6.834,0,0,1-.827.5,5.5,5.5,0,0,1-.917.365,7.157,7.157,0,0,1-1.053.226,8.946,8.946,0,0,1-1.233.079,5.521,5.521,0,0,1-2.1-.387,4.669,4.669,0,0,1-1.632-1.1,4.959,4.959,0,0,1-1.057-1.719,6.864,6.864,0,0,1,0-4.478,4.878,4.878,0,0,1,1.068-1.715,4.711,4.711,0,0,1,1.681-1.1,6.029,6.029,0,0,1,2.215-.387,7.131,7.131,0,0,1,1.124.083,5.2,5.2,0,0,1,.959.245,4.44,4.44,0,0,1,.827.4,5.452,5.452,0,0,1,.737.546l-.2.33a.211.211,0,0,1-.188.113.293.293,0,0,1-.129-.03,1.592,1.592,0,0,1-.326-.211,3.557,3.557,0,0,0-.579-.347,4.866,4.866,0,0,0-.914-.323,5.362,5.362,0,0,0-1.331-.142,5.026,5.026,0,0,0-1.873.331,3.971,3.971,0,0,0-1.426.947,4.209,4.209,0,0,0-.91,1.5,5.864,5.864,0,0,0-.319,1.993,5.924,5.924,0,0,0,.324,2.023,4.324,4.324,0,0,0,.906,1.516,3.912,3.912,0,0,0,1.4.951A4.76,4.76,0,0,0,123.011,98.329Z" transform="translate(-61.413 -87.958)" fill="#fff"/><path d="M137.861,94.1v4.813h-.767V88.267h2.714a4.434,4.434,0,0,1,2.753.71,2.49,2.49,0,0,1,.909,2.087,2.852,2.852,0,0,1-.211,1.112,2.608,2.608,0,0,1-.6.884,3.233,3.233,0,0,1-.951.625,4.269,4.269,0,0,1-1.256.319,1.2,1.2,0,0,1,.323.3l3.663,4.6h-.67a.441.441,0,0,1-.207-.045.528.528,0,0,1-.168-.15L139.982,94.4a.755.755,0,0,0-.274-.233,1.151,1.151,0,0,0-.455-.068Zm0-.572h1.85a4.381,4.381,0,0,0,1.267-.169,2.746,2.746,0,0,0,.948-.485,2.091,2.091,0,0,0,.59-.76,2.37,2.37,0,0,0,.2-1,1.956,1.956,0,0,0-.744-1.685,3.618,3.618,0,0,0-2.167-.549h-1.947Z" transform="translate(-68.813 -88.033)" fill="#fff"/><path d="M160.252,98.908h-.594a.263.263,0,0,1-.174-.056.375.375,0,0,1-.1-.147l-1.256-3.091H152.9l-1.249,3.091a.324.324,0,0,1-.105.143.278.278,0,0,1-.179.06h-.588l4.355-10.641h.767Zm-7.122-3.866H157.9l-2.172-5.377c-.036-.086-.072-.182-.106-.29s-.07-.222-.1-.342c-.035.12-.071.234-.106.342s-.07.207-.1.3Z" transform="translate(-74.059 -88.033)" fill="#fff"/><path d="M173,88.267v.654h-3.738v9.988h-.767V88.921h-3.76v-.654Z" transform="translate(-79.41 -88.033)" fill="#fff"/><path d="M182.008,98.908h-.774V88.267h.774Z" transform="translate(-85.736 -88.033)" fill="#fff"/><path d="M185.475,88.267h.609a.261.261,0,0,1,.172.055.378.378,0,0,1,.106.147l3.625,8.829a4.763,4.763,0,0,1,.234.737,4.077,4.077,0,0,1,.218-.737l3.617-8.829a.4.4,0,0,1,.109-.143.265.265,0,0,1,.177-.06h.6l-4.392,10.641h-.684Z" transform="translate(-87.362 -88.033)" fill="#fff"/><path d="M209.944,88.267v.639h-5.6v4.3H209v.624H204.34v4.437h5.6v.639h-6.378V88.267Z" transform="translate(-94.298 -88.033)" fill="#fff"/></g><g transform="translate(-342.033 -42)"><g clip-path="url(#a)"><path d="M81.812,194.555s12.947-2.281,13.953-10.263c0,0-6.775-5.568-6.038-13.551,0,0,4.428,8.654,6.641,9.392,0,0,3.22-4.092.4-16.3,0,0,3.69,1.208,4.226,9.928,0,0,2.214-3.5,5.367-3.8,0,0-12.678,13.525-3.958,23.855a24.461,24.461,0,0,0-12.679,2.012s8.922-4.495-7.915-1.275" transform="translate(-61.359 -122.873)" fill="#fff"/><path d="M168.555,213.149s-21.936-2.429-9.593-24.794c0,0-12.678,13.323-3.958,23.855a9.351,9.351,0,0,1,5.244,2.885s-2.6-4.294,0-3.354,8.307,1.409,8.307,1.409" transform="translate(-113.956 -141.266)" fill="#fff"/><path d="M149.482,78.234s-5.546-4.651-3.13-14.937,10.554-17.352,10.554-17.352,9.481,10.107,6.172,20.661-10.555,12.969-10.555,12.969S151,69.111,154.312,63.655c0,0-5.188,2.773-4.83,14.579" transform="translate(-109.307 -34.459)" fill="#fff"/><path d="M82.021,84.626s-6.357-.525-9.854-9.156-1.235-17.858-1.235-17.858S82.9,60.061,85.887,69.34s-.995,14.7-.995,14.7-6.42-6.757-6.815-12.367c0,0-2.322,4.635,3.943,12.949" transform="translate(-52.659 -43.21)" fill="#fff"/><path d="M25.575,155.036s-3.706,4.381-11.853,2.432S0,149.043,0,149.043s8.045-7.483,16.4-4.825,10.247,8.411,10.247,8.411-8.3,1.171-12.616-1.471c0,0,2.181,4.122,11.543,3.878" transform="translate(0 -107.735)" fill="#fff"/><path d="M53.771,215.74s-.7,4.137-6.555,5.944a21.416,21.416,0,0,1-11.774-.194s2.277-7.705,8.527-9.143,9.581,1.479,9.581,1.479-4.789,3.828-8.489,3.771c0,0,2.908,1.783,8.709-1.857" transform="translate(-26.582 -158.961)" fill="#fff"/><path d="M18.7,103.07s-3.213,1.772-7.636-1.249A18.725,18.725,0,0,1,4.791,93.66s6.512-2.637,10.9.857,4.2,7.36,4.2,7.36-5.227-1.193-7.2-3.755c0,0,.364,2.96,6.012,4.948" transform="translate(-3.593 -69.529)" fill="#fff"/><path d="M127.721,23.859s-3.587-2.186-3.1-8.3a21.439,21.439,0,0,1,4.545-10.875s6.32,4.974,5.34,11.318-4.927,8.361-4.927,8.361-1.784-5.872-.36-9.291c0,0-2.735,2.042-1.5,8.786" transform="translate(-93.433 -3.514)" fill="#fff"/><path d="M229.118,92.793s-1.225-3.917,3.075-8.088a20.943,20.943,0,0,1,10.346-5.055s1.435,7.725-3.373,11.751-9.006,2.963-9.006,2.963,2.475-5.461,5.724-7.053c0,0-3.325-.263-6.765,5.483" transform="translate(-171.718 -59.738)" fill="#fff"/><path d="M194.692,157.505s1.351-5.768,9.756-7.8,16.571,1.305,16.571,1.305-3.884,10.656-12.815,12.134-13.369-2.923-13.369-2.923,7.083-4.973,12.29-4.57c0,0-3.94-2.766-12.433,1.853" transform="translate(-146.019 -111.787)" fill="#fff"/><path d="M192.555,213.05s3.032-2.18,7.867.337a19.058,19.058,0,0,1,7.331,7.486s-6.26,3.453-11.116.454-5.14-6.928-5.14-6.928,5.426.572,7.732,2.922c0,0-.726-2.947-6.674-4.271" transform="translate(-143.623 -159.13)" fill="#fff"/></g></g></g></svg>